<svg id="Layer_1" data-name="Layer 1" xmlns="http://www.w3.org/2000/svg" viewBox="0 0 91.03 61.81"><defs><style>.cls-1{fill:#dc9927;}.cls-2{fill:#010101;}</style></defs><title>aqua</title><rect class="cls-1" width="91.03" height="61.81" rx="30.9" ry="30.9"/><path class="cls-2" d="M284.78,392.22l7.7-4.58a2.94,2.94,0,0,1,4.34,0l2.88,2.89s1.29,1.77,2.89-.16l3.53-2.89s2.89-2.41,4.5,0l3.05,2.73a2.08,2.08,0,0,0,3.05-.16l3.21-2.25s3.21-2.25,5,0l3.69,3.21s4,5.3-.64,4.34l-3.69-3.7a2.35,2.35,0,0,0-3.69,0l-4,2.73s-1.45,2.41-4,.16l-2.4-2.89a2.32,2.32,0,0,0-3.69,0l-3.86,3.05s-1.12,2.09-3.69,0L296.17,391s-2.08-1.27-2.56,0l-6.1,4.61S283.82,396.47,284.78,392.22Z" transform="translate(-259.73 -365.37)"/><path class="cls-2" d="M284.78,402.65l7.7-4.58a3,3,0,0,1,4.34,0L299.7,401s1.29,1.77,2.89-.16l3.53-2.89s2.89-2.4,4.5,0l3.05,2.73a2.07,2.07,0,0,0,3.05-.16l3.21-2.25s3.21-2.24,5,0l3.69,3.21s4,5.3-.64,4.34l-3.69-3.69a2.34,2.34,0,0,0-3.69,0l-4,2.72s-1.45,2.41-4,.17l-2.4-2.89a2.31,2.31,0,0,0-3.69,0l-3.86,3.05s-1.12,2.08-3.69,0l-2.73-3.69s-2.08-1.27-2.56,0l-6.1,4.61S283.82,406.9,284.78,402.65Z" transform="translate(-259.73 -365.37)"/></svg>