<svg id="dj" xmlns="http://www.w3.org/2000/svg" xmlns:xlink="http://www.w3.org/1999/xlink" viewBox="0 0 613 344.87"><defs><style>.cls-1,.cls-3,.cls-7{stroke:#fff;}.cls-1,.cls-3,.cls-4,.cls-7{stroke-miterlimit:10;}.cls-2{fill:#111312;}.cls-3,.cls-7{fill:none;}.cls-4{fill:#949494;stroke:#000;}.cls-5{font-size:12px;fill:#fff;font-family:MyriadPro-Regular, Myriad Pro;}.cls-6{fill:url(#linear-gradient);}.cls-7{opacity:0.3;}.cls-8{fill:url(#linear-gradient-2);}.cls-9{fill:url(#linear-gradient-3);}.cls-10{fill:url(#linear-gradient-4);}.cls-11{fill:#dd980e;}</style><linearGradient id="linear-gradient" x1="50.74" y1="186.63" x2="50.74" y2="43.69" gradientUnits="userSpaceOnUse"><stop offset="0"/><stop offset="0.67" stop-color="#ff5003"/></linearGradient><linearGradient id="linear-gradient-2" x1="562.64" y1="186.63" x2="562.64" y2="43.69" xlink:href="#linear-gradient"/><linearGradient id="linear-gradient-3" x1="198.38" y1="244.94" x2="412.52" y2="244.94" gradientUnits="userSpaceOnUse"><stop offset="0"/><stop offset="1" stop-color="#00e949"/></linearGradient><linearGradient id="linear-gradient-4" x1="216.88" y1="245.74" x2="242.23" y2="245.74" gradientUnits="userSpaceOnUse"><stop offset="0.15"/><stop offset="1" stop-color="#fff"/></linearGradient></defs><title>dj</title><rect id="bckgrd" class="cls-1" x="0.5" y="0.5" width="612" height="343.87"/><g id="left_disc" data-name="left disc"><circle id="_1" data-name="1" class="cls-2" cx="166.45" cy="116.08" r="85.95"/><circle id="_22" data-name="22" class="cls-1" cx="166.38" cy="115.41" r="79.95"/><circle id="_13" data-name="13" class="cls-3" cx="167.38" cy="115.16" r="24.56"/></g><g id="right_disc" data-name="right disc"><circle id="_2" data-name="2" class="cls-2" cx="444.79" cy="116.08" r="85.95"/><circle id="_22-2" data-name="22" class="cls-1" cx="444.79" cy="115.16" r="79.95"/><circle id="_13-2" data-name="13" class="cls-3" cx="445.79" cy="115.16" r="24.56"/></g><g id="Layer_5" data-name="Layer 5"><path class="cls-4" d="M258.67,32.58s-17.58-13.47,0-25.66V2.74h10V7.48s17.85,10,0,25.1L267,36.77l-.56,90.66s-6.7,37.47-15.62,39.24c0,0-6.16-.75-5-6.32,0,0,5-10.88,8.37-12.28,0,0,6.68-12.27,7-19v-92Z" transform="translate(0.5 5.77)"/><circle cx="264.46" cy="25.77" r="6.83"/><path class="cls-4" d="M353.46,32.52s17.69-13.32.23-25.66l0-4.19-10.05-.08,0,4.74s-17.94,9.88-.22,25.1l1.64,4.2-.25,90.66s6.36,37.53,15.28,39.38c0,0,6.15-.69,5.08-6.28,0,0-4.93-10.92-8.27-12.35,0,0-6.56-12.33-6.79-19l.81-92Z" transform="translate(0.5 5.77)"/><circle cx="348.94" cy="25.79" r="6.83"/></g><g id="AD_Button" data-name="AD Button"><rect class="cls-4" x="294.75" y="156" width="23.34" height="16.43"/><rect x="297.25" y="158.22" width="18.06" height="11.67"/><text class="cls-5" transform="translate(298.36 167.86)">AD</text></g><g id="volume"><rect x="34.02" y="35.21" width="33.44" height="159.9"/><rect class="cls-6" x="48.58" y="43.69" width="4.32" height="142.94"/><line class="cls-7" x1="39.95" y1="53.45" x2="61.53" y2="53.45"/><line class="cls-7" x1="39.95" y1="69.63" x2="61.53" y2="69.63"/><line class="cls-7" x1="39.95" y1="85.81" x2="61.53" y2="85.81"/><line class="cls-7" x1="39.95" y1="101.99" x2="61.53" y2="101.99"/><line class="cls-7" x1="39.95" y1="118.18" x2="61.53" y2="118.18"/><line class="cls-7" x1="39.95" y1="134.36" x2="61.53" y2="134.36"/><line class="cls-7" x1="39.95" y1="150.54" x2="61.53" y2="150.54"/><line class="cls-7" x1="39.95" y1="166.72" x2="61.53" y2="166.72"/><rect x="545.91" y="35.21" width="33.44" height="159.9"/><rect class="cls-8" x="560.48" y="43.69" width="4.32" height="142.94"/><line class="cls-7" x1="551.85" y1="53.45" x2="573.42" y2="53.45"/><line class="cls-7" x1="551.85" y1="69.63" x2="573.42" y2="69.63"/><line class="cls-7" x1="551.85" y1="85.81" x2="573.42" y2="85.81"/><line class="cls-7" x1="551.85" y1="101.99" x2="573.42" y2="101.99"/><line class="cls-7" x1="551.85" y1="118.18" x2="573.42" y2="118.18"/><line class="cls-7" x1="551.85" y1="134.36" x2="573.42" y2="134.36"/><line class="cls-7" x1="551.85" y1="150.54" x2="573.42" y2="150.54"/><line class="cls-7" x1="551.85" y1="166.72" x2="573.42" y2="166.72"/></g><g id="Layer_8" data-name="Layer 8"><rect class="cls-9" x="198.38" y="243.32" width="214.14" height="3.24"/><rect class="cls-10" x="216.88" y="235.77" width="25.35" height="19.96"/><line class="cls-7" x1="246.33" y1="235.77" x2="246.33" y2="257.34"/><line class="cls-7" x1="277.14" y1="235.77" x2="277.14" y2="257.34"/><line class="cls-7" x1="309.12" y1="235.77" x2="309.12" y2="257.34"/><line class="cls-7" x1="338.78" y1="235.77" x2="338.78" y2="257.34"/><line class="cls-7" x1="366.8" y1="234.77" x2="366.8" y2="256.34"/><line class="cls-7" x1="396.5" y1="234.77" x2="396.5" y2="256.34"/><rect class="cls-11" x="61.53" y="272.92" width="43.69" height="29.67"/><rect class="cls-11" x="176.54" y="272.92" width="43.69" height="29.67"/><rect class="cls-11" x="287.27" y="272.92" width="43.69" height="29.67"/><rect class="cls-11" x="390.68" y="272.92" width="43.69" height="29.67"/><rect class="cls-11" x="494.09" y="272.92" width="43.69" height="29.67"/><rect class="cls-11" x="61.53" y="310.08" width="43.69" height="29.67"/><rect class="cls-11" x="176.54" y="310.08" width="43.69" height="29.67"/><rect class="cls-11" x="287.27" y="310.08" width="43.69" height="29.67"/><rect class="cls-11" x="390.68" y="310.08" width="43.69" height="29.67"/><rect class="cls-11" x="494.09" y="310.08" width="43.69" height="29.67"/></g></svg>