<svg id="Layer_1" data-name="Layer 1" xmlns="http://www.w3.org/2000/svg" viewBox="0 0 91.03 61.81"><defs><style>.cls-1{fill:#dc9927;}.cls-2{fill:#010101;}</style></defs><title>gem</title><rect class="cls-1" width="91.03" height="61.81" rx="30.9" ry="30.9"/><path class="cls-2" d="M290.72,378.11c.21.29,3.76,5.25,9.16,5h10.21c.83,0,8.18-.54,9-5,0,0,3.57-.91,2.38,2.48,0,0-.7,3.32-8.88,4.86v21.61s8.87,2.87,9.12,5c.29,0,2,3.78-2.48,2.23.74-.23-4.22-4.91-9.23-4.75H300.3a12.79,12.79,0,0,0-9.3,4.94s-3.43,1.21-2.45-2.56c-.05.28,4.71-4.11,9.09-4.9l.07-21.4s-8.67-2.45-9-5C288.69,380.56,287.36,377.55,290.72,378.11Z" transform="translate(-259.78 -365.41)"/><rect class="cls-1" x="41.15" y="20.04" width="8.25" height="21.4"/></svg>