<svg id="Layer_1" data-name="Layer 1" xmlns="http://www.w3.org/2000/svg" viewBox="0 0 91.03 61.81"><defs><style>.cls-1{fill:#dc9927;}.cls-2{fill:#231f20;}</style></defs><title>leo</title><rect class="cls-1" width="91.03" height="61.81" rx="30.9" ry="30.9"/><path class="cls-2" d="M296,395.27c.24.11-2.38-5.37,0-10.86,0,0,2.4-4.8,6.64-5.79,0,0,7.62-2.82,12,3.11a18,18,0,0,1,2.8,7.88,25.73,25.73,0,0,1-.47,5.61,24,24,0,0,1-.76,2.36,44.48,44.48,0,0,0-2.7,9c-.81,1.6-.1,3.49-.21,2.68-.74,1.19,5.08,4.59,7-1.69.12.32.24-1.2,1.69-1.55-.22.16,1.74.06,1.41,2.11-.36,2.24-.71,6.48-8.75,5.79-8.63-.75-1.27-16.51-1.27-16.51s2.12-9.88-.42-13.27c0,0-5.08-6.35-12.28-.84,0,0-5.64,7.8-.56,12.72,0,0,4.09,2.38,4.23,5.76,0,0,1.69,6.64-4.52,9.88s-11.43-3.1-11.43-5.78c0,0-1.13-5.79,3.25-8.19,0,0,3.82-2,4.66-1.67S296,395.27,296,395.27Z" transform="translate(-260.36 -365.06)"/><rect class="cls-1" x="30.6" y="33.87" width="10.37" height="10.37" rx="5.19" ry="5.19"/></svg>