<svg id="Layer_1" data-name="Layer 1" xmlns="http://www.w3.org/2000/svg" viewBox="0 0 91.03 61.81"><defs><style>.cls-1{fill:#dc9927;}.cls-2{fill:#010101;}</style></defs><title>lib</title><rect class="cls-1" width="91.03" height="61.81" rx="30.9" ry="30.9"/><path class="cls-2" d="M284,394.14h9.27a2.07,2.07,0,0,0,2-2.55c-.8-3.5-1.15-11,9.62-12.93-1.18.37,12.19-.85,10.62,12.86a2.15,2.15,0,0,0,2,2.62h9.08a2.06,2.06,0,0,1,2.06,2.06h0a2.07,2.07,0,0,1-2.06,2.07H310.23s-2.32-1-.13-3.1c-.6.14,7-10.89-4.29-12.84-.31-.05-.64.13-1,.09-2.5-.3-10.71,3.34-3.13,13,0,0,1.8,2.19-.52,2.84H284A2.07,2.07,0,0,1,282,396.2h0A2.07,2.07,0,0,1,284,394.14Z" transform="translate(-260.06 -365.37)"/><polygon class="cls-2" points="21.84 39.55 69.19 39.55 69.19 43.29 21.84 42.9 21.84 39.55"/></svg>