<svg id="Layer_1" data-name="Layer 1" xmlns="http://www.w3.org/2000/svg" xmlns:xlink="http://www.w3.org/1999/xlink" viewBox="0 0 612 343.87"><defs><style>.cls-1{fill:#010101;}.cls-2{fill:#131514;}.cls-3,.cls-4,.cls-8{stroke:#fff;}.cls-3,.cls-4,.cls-5,.cls-8{stroke-miterlimit:10;}.cls-4,.cls-8{fill:none;}.cls-5{fill:#959494;stroke:#010101;}.cls-6{font-size:12px;fill:#fff;font-family:MyriadPro-Regular, Myriad Pro;}.cls-7{fill:url(#linear-gradient);}.cls-8{opacity:0.3;}.cls-9{fill:url(#linear-gradient-2);}.cls-10{fill:url(#linear-gradient-3);}.cls-11{fill:url(#linear-gradient-4);}</style><linearGradient id="linear-gradient" x1="50.24" y1="186.13" x2="50.24" y2="43.19" gradientUnits="userSpaceOnUse"><stop offset="0"/><stop offset="0.67" stop-color="#f05423"/></linearGradient><linearGradient id="linear-gradient-2" x1="562.14" y1="186.13" x2="562.14" y2="43.19" xlink:href="#linear-gradient"/><linearGradient id="linear-gradient-3" x1="197.88" y1="244.44" x2="412.02" y2="244.44" gradientUnits="userSpaceOnUse"><stop offset="0"/><stop offset="1" stop-color="#5fbb46"/></linearGradient><linearGradient id="linear-gradient-4" x1="216.38" y1="245.24" x2="241.73" y2="245.24" gradientUnits="userSpaceOnUse"><stop offset="0.15"/><stop offset="1" stop-color="#fff"/></linearGradient></defs><title>panel</title><rect id="bckgrd" class="cls-1" width="612" height="343.87" rx="55.51" ry="55.51"/><circle id="_1" data-name="1" class="cls-2" cx="165.95" cy="115.58" r="85.95"/><circle id="_22" data-name="22" class="cls-3" cx="165.88" cy="114.91" r="79.95"/><circle id="_13" data-name="13" class="cls-4" cx="166.88" cy="114.66" r="24.56"/><circle id="_2" data-name="2" class="cls-2" cx="444.29" cy="115.58" r="85.95"/><circle id="_22-2" data-name="22" class="cls-3" cx="444.29" cy="114.66" r="79.95"/><circle id="_13-2" data-name="13" class="cls-4" cx="445.29" cy="114.66" r="24.56"/><path class="cls-5" d="M258.67,261.85s-17.58-13.48,0-25.66V232h10v4.74s17.85,10,0,25.11L267,266l-.56,90.66s-6.7,37.46-15.62,39.23c0,0-6.16-.74-5-6.32,0,0,5-10.88,8.37-12.27,0,0,6.68-12.28,7-19V266.31Z" transform="translate(0 -224)"/><circle cx="263.96" cy="25.27" r="6.83"/><path class="cls-5" d="M353.46,261.79s17.69-13.32.23-25.66l0-4.19-10.05-.09,0,4.74s-17.94,9.89-.22,25.11l1.64,4.2-.25,90.66s6.36,37.53,15.28,39.37c0,0,6.15-.68,5.08-6.27,0,0-4.93-10.92-8.27-12.35,0,0-6.56-12.33-6.79-19l.81-92Z" transform="translate(0 -224)"/><circle cx="348.44" cy="25.29" r="6.83"/><rect class="cls-5" x="294.25" y="155.5" width="23.34" height="16.43"/><rect x="296.75" y="157.72" width="18.06" height="11.67"/><text class="cls-6" transform="translate(297.86 167.36)">AD</text><rect x="33.52" y="34.71" width="33.44" height="159.9"/><rect class="cls-7" x="48.08" y="43.19" width="4.32" height="142.94"/><line class="cls-8" x1="39.45" y1="52.95" x2="61.03" y2="52.95"/><line class="cls-8" x1="39.45" y1="69.13" x2="61.03" y2="69.13"/><line class="cls-8" x1="39.45" y1="85.31" x2="61.03" y2="85.31"/><line class="cls-8" x1="39.45" y1="101.49" x2="61.03" y2="101.49"/><line class="cls-8" x1="39.45" y1="117.68" x2="61.03" y2="117.68"/><line class="cls-8" x1="39.45" y1="133.86" x2="61.03" y2="133.86"/><line class="cls-8" x1="39.45" y1="150.04" x2="61.03" y2="150.04"/><line class="cls-8" x1="39.45" y1="166.22" x2="61.03" y2="166.22"/><rect x="545.41" y="34.71" width="33.44" height="159.9"/><rect class="cls-9" x="559.98" y="43.19" width="4.32" height="142.94"/><line class="cls-8" x1="551.35" y1="52.95" x2="572.92" y2="52.95"/><line class="cls-8" x1="551.35" y1="69.13" x2="572.92" y2="69.13"/><line class="cls-8" x1="551.35" y1="85.31" x2="572.92" y2="85.31"/><line class="cls-8" x1="551.35" y1="101.49" x2="572.92" y2="101.49"/><line class="cls-8" x1="551.35" y1="117.68" x2="572.92" y2="117.68"/><line class="cls-8" x1="551.35" y1="133.86" x2="572.92" y2="133.86"/><line class="cls-8" x1="551.35" y1="150.04" x2="572.92" y2="150.04"/><line class="cls-8" x1="551.35" y1="166.22" x2="572.92" y2="166.22"/><rect class="cls-10" x="197.88" y="242.82" width="214.14" height="3.24"/><rect class="cls-11" x="216.38" y="235.27" width="25.35" height="19.96"/><line class="cls-8" x1="245.83" y1="235.27" x2="245.83" y2="256.84"/><line class="cls-8" x1="276.64" y1="235.27" x2="276.64" y2="256.84"/><line class="cls-8" x1="308.62" y1="235.27" x2="308.62" y2="256.84"/><line class="cls-8" x1="338.28" y1="235.27" x2="338.28" y2="256.84"/><line class="cls-8" x1="366.3" y1="234.27" x2="366.3" y2="255.84"/><line class="cls-8" x1="396" y1="234.27" x2="396" y2="255.84"/></svg>