<svg id="Layer_1" data-name="Layer 1" xmlns="http://www.w3.org/2000/svg" viewBox="0 0 91.03 61.81"><defs><style>.cls-1{fill:#dc9927;}.cls-2{fill:#010101;}</style></defs><title>tau</title><rect class="cls-1" width="91.03" height="61.81" rx="30.9" ry="30.9"/><path class="cls-2" d="M286.35,382.52s6.43-4.72,10.51,0l5.78,6.85a5.15,5.15,0,0,0,6.86,0s4.79-6.46,6.43-7.71,7.28-3.43,10.28,1.07c0,0,1.93,5.57-3.85,1.29,0,0-4.5-1.72-6.65,3.43a11.26,11.26,0,0,1-3.64,4.5s9.86,7.71,2.14,16.71c0,0-6.56,8.69-16.28,0,0,0-7.07-8.57,2.35-16.5,0,0-4.28-7.07-6.42-7.93,0,0-3.86-1.71-6,1.29C287.85,385.52,284.21,385.3,286.35,382.52Z" transform="translate(-260.59 -365.37)"/><circle class="cls-1" cx="45.51" cy="36.5" r="7.5"/></svg>